<svg xmlns="http://www.w3.org/2000/svg" fill-rule="evenodd" stroke-linejoin="round" stroke-miterlimit="2" clip-rule="evenodd" viewBox="0 0 24 24"><path fill="#ffce54" d="M12.476,1.755c-0.067,-0.206 -0.259,-0.345 -0.476,-0.345c-0.217,-0 -0.409,0.139 -0.476,0.345l-2.132,6.565c-0,-0 -6.903,-0 -6.903,-0c-0.216,-0 -0.408,0.139 -0.475,0.345c-0.067,0.206 0.006,0.432 0.182,0.559l5.583,4.057c0.001,0 -2.132,6.564 -2.132,6.564c-0.067,0.207 0.006,0.432 0.181,0.56c0.175,0.127 0.413,0.127 0.588,-0l5.584,-4.057c0,-0 5.584,4.057 5.584,4.057c0.175,0.127 0.413,0.127 0.588,-0c0.175,-0.128 0.248,-0.353 0.181,-0.56l-2.133,-6.564c0.001,0 5.584,-4.057 5.584,-4.057c0.176,-0.127 0.249,-0.353 0.182,-0.559c-0.067,-0.206 -0.259,-0.345 -0.475,-0.345l-6.903,-0c0,-0 -2.132,-6.565 -2.132,-6.565Z"/></svg>